STARTFONT 2.1
FONT -sun-conga-bold-r-normal--10-100-75-75-p-70-adobe-fontspecific
SIZE 10 75 75
FONTBOUNDINGBOX 17 12 -3 -2

STARTPROPERTIES 28
FOUNDRY "sun"
FAMILY_NAME "conga"
WEIGHT_NAME "bold"
SLANT "r"
SETWIDTH_NAME "normal"
ADD_STYLE_NAME ""
PIXEL_SIZE 10
POINT_SIZE 100
RESOLUTION_X 75
RESOLUTION_Y 75
SPACING "p"
AVERAGE_WIDTH 70
CHARSET_REGISTRY "adobe"
CHARSET_ENCODING "fontspecific"
COPYRIGHT "© 1999 Sun Microsystems, Inc."
RAW_PIXELSIZE 1000
RAW_POINTSIZE 964
RAW_ASCENT 928
RAW_DESCENT 219
RAW_AVERAGE_WIDTH 6696
FACE_NAME "CongaBoldrg"
_XMBDFED_INFO "Edited with xmbdfed 2.4."
WEIGHT 10
X_HEIGHT -1
QUAD_WIDTH 7
DEFAULT_CHAR 4
FONT_DESCENT 2
FONT_ASCENT 10
ENDPROPERTIES

CHARS 203

STARTCHAR char32
ENCODING 32
SWIDTH 43 0
DWIDTH 5 0
BBX 0 0 0 0
BITMAP
ENDCHAR

STARTCHAR char33
ENCODING 33
SWIDTH 25 0
DWIDTH 3 0
BBX 2 7 0 0
BITMAP
40
40
C0
C0
C0
00
40
ENDCHAR

STARTCHAR char34
ENCODING 34
SWIDTH 34 0
DWIDTH 4 0
BBX 4 2 0 5
BITMAP
F0
50
ENDCHAR

STARTCHAR char35
ENCODING 35
SWIDTH 51 0
DWIDTH 6 0
BBX 5 8 0 0
BITMAP
28
28
78
30
30
F8
50
50
ENDCHAR

STARTCHAR char36
ENCODING 36
SWIDTH 68 0
DWIDTH 8 0
BBX 8 9 0 -1
BITMAP
10
7F
CA
D8
7E
1B
D3
7E
18
ENDCHAR

STARTCHAR char37
ENCODING 37
SWIDTH 24 0
DWIDTH 13 0
BBX 13 7 -1 0
BITMAP
7880
CC80
CDE0
6B98
3598
0998
08F0
ENDCHAR

STARTCHAR char38
ENCODING 38
SWIDTH 77 0
DWIDTH 9 0
BBX 9 7 0 0
BITMAP
3800
6C00
3900
6F80
CE00
EE00
7900
ENDCHAR

STARTCHAR char39
ENCODING 39
SWIDTH 17 0
DWIDTH 2 0
BBX 2 2 0 6
BITMAP
80
C0
ENDCHAR

STARTCHAR char40
ENCODING 40
SWIDTH 34 0
DWIDTH 4 0
BBX 3 7 0 0
BITMAP
20
40
C0
C0
C0
40
20
ENDCHAR

STARTCHAR char41
ENCODING 41
SWIDTH 34 0
DWIDTH 4 0
BBX 3 7 0 0
BITMAP
40
40
60
60
60
40
80
ENDCHAR

STARTCHAR char42
ENCODING 42
SWIDTH 43 0
DWIDTH 5 0
BBX 5 4 0 3
BITMAP
68
F8
60
50
ENDCHAR

STARTCHAR char43
ENCODING 43
SWIDTH 68 0
DWIDTH 8 0
BBX 6 6 0 0
BITMAP
30
30
FC
30
30
30
ENDCHAR

STARTCHAR char44
ENCODING 44
SWIDTH 17 0
DWIDTH 2 0
BBX 2 2 0 -1
BITMAP
C0
40
ENDCHAR

STARTCHAR char45
ENCODING 45
SWIDTH 34 0
DWIDTH 4 0
BBX 3 1 0 3
BITMAP
E0
ENDCHAR

STARTCHAR char46
ENCODING 46
SWIDTH 17 0
DWIDTH 2 0
BBX 2 1 0 0
BITMAP
C0
ENDCHAR

STARTCHAR char47
ENCODING 47
SWIDTH 68 0
DWIDTH 8 0
BBX 7 7 0 0
BITMAP
04
04
08
10
20
40
80
ENDCHAR

STARTCHAR char48
ENCODING 48
SWIDTH 77 0
DWIDTH 9 0
BBX 8 7 0 0
BITMAP
3C
42
C3
C3
C3
42
3C
ENDCHAR

STARTCHAR char49
ENCODING 49
SWIDTH 77 0
DWIDTH 9 0
BBX 2 7 3 0
BITMAP
C0
C0
40
C0
C0
C0
C0
ENDCHAR

STARTCHAR char50
ENCODING 50
SWIDTH 77 0
DWIDTH 9 0
BBX 6 7 1 0
BITMAP
78
8C
0C
18
60
80
FC
ENDCHAR

STARTCHAR char51
ENCODING 51
SWIDTH 77 0
DWIDTH 9 0
BBX 7 7 0 0
BITMAP
3C
46
16
1C
06
42
3C
ENDCHAR

STARTCHAR char52
ENCODING 52
SWIDTH 77 0
DWIDTH 9 0
BBX 8 7 0 0
BITMAP
0E
1E
16
26
47
FE
05
ENDCHAR

STARTCHAR char53
ENCODING 53
SWIDTH 77 0
DWIDTH 9 0
BBX 8 8 0 0
BITMAP
01
7F
60
7E
23
03
62
3C
ENDCHAR

STARTCHAR char54
ENCODING 54
SWIDTH 77 0
DWIDTH 9 0
BBX 8 7 0 0
BITMAP
7E
C2
DE
E3
C3
63
3E
ENDCHAR

STARTCHAR char55
ENCODING 55
SWIDTH 77 0
DWIDTH 9 0
BBX 7 8 1 0
BITMAP
82
FC
04
08
10
10
20
70
ENDCHAR

STARTCHAR char56
ENCODING 56
SWIDTH 77 0
DWIDTH 9 0
BBX 8 7 0 0
BITMAP
7E
C3
E2
7C
43
C3
7C
ENDCHAR

STARTCHAR char57
ENCODING 57
SWIDTH 77 0
DWIDTH 9 0
BBX 8 7 0 0
BITMAP
7E
C3
C3
E7
7B
46
7C
ENDCHAR

STARTCHAR char58
ENCODING 58
SWIDTH 25 0
DWIDTH 3 0
BBX 2 5 0 0
BITMAP
C0
00
00
00
C0
ENDCHAR

STARTCHAR char59
ENCODING 59
SWIDTH 25 0
DWIDTH 3 0
BBX 2 6 0 -1
BITMAP
C0
00
00
00
C0
40
ENDCHAR

STARTCHAR char60
ENCODING 60
SWIDTH 60 0
DWIDTH 7 0
BBX 6 5 0 0
BITMAP
18
20
C0
30
0C
ENDCHAR

STARTCHAR char61
ENCODING 61
SWIDTH 68 0
DWIDTH 8 0
BBX 7 2 0 2
BITMAP
FE
FE
ENDCHAR

STARTCHAR char62
ENCODING 62
SWIDTH 60 0
DWIDTH 7 0
BBX 5 5 1 0
BITMAP
C0
30
18
60
80
ENDCHAR

STARTCHAR char63
ENCODING 63
SWIDTH 51 0
DWIDTH 6 0
BBX 5 7 0 0
BITMAP
70
58
10
10
30
00
38
ENDCHAR

STARTCHAR char64
ENCODING 64
SWIDTH 7 0
DWIDTH 11 0
BBX 9 8 1 0
BITMAP
1C00
2200
7B00
E580
E500
ED00
7E00
3C00
ENDCHAR

STARTCHAR char65
ENCODING 65
SWIDTH 77 0
DWIDTH 9 0
BBX 9 7 0 0
BITMAP
1C00
3800
2400
2400
7E00
4200
C380
ENDCHAR

STARTCHAR char66
ENCODING 66
SWIDTH 77 0
DWIDTH 9 0
BBX 8 7 0 0
BITMAP
7E
43
C2
FC
C3
C3
FE
ENDCHAR

STARTCHAR char67
ENCODING 67
SWIDTH 86 0
DWIDTH 10 0
BBX 8 7 0 0
BITMAP
3E
41
C0
C0
C0
41
3E
ENDCHAR

STARTCHAR char68
ENCODING 68
SWIDTH 77 0
DWIDTH 9 0
BBX 9 7 0 0
BITMAP
FE00
C300
C180
C180
C180
C300
FE00
ENDCHAR

STARTCHAR char69
ENCODING 69
SWIDTH 68 0
DWIDTH 8 0
BBX 7 7 0 0
BITMAP
FE
C0
C4
FC
C0
C0
FE
ENDCHAR

STARTCHAR char70
ENCODING 70
SWIDTH 68 0
DWIDTH 8 0
BBX 8 7 0 0
BITMAP
FF
C0
C4
FC
C0
C0
E0
ENDCHAR

STARTCHAR char71
ENCODING 71
SWIDTH 86 0
DWIDTH 10 0
BBX 9 7 0 0
BITMAP
3F00
4100
C000
CF80
C180
4180
3E00
ENDCHAR

STARTCHAR char72
ENCODING 72
SWIDTH 77 0
DWIDTH 9 0
BBX 9 7 0 0
BITMAP
E380
C300
C300
FF00
C300
C300
FF80
ENDCHAR

STARTCHAR char73
ENCODING 73
SWIDTH 25 0
DWIDTH 3 0
BBX 3 7 0 0
BITMAP
E0
C0
C0
C0
C0
C0
E0
ENDCHAR

STARTCHAR char74
ENCODING 74
SWIDTH 60 0
DWIDTH 7 0
BBX 7 7 0 0
BITMAP
0E
0C
0C
0C
0C
8C
78
ENDCHAR

STARTCHAR char75
ENCODING 75
SWIDTH 68 0
DWIDTH 8 0
BBX 9 7 0 0
BITMAP
E700
C800
9000
E800
CC00
C600
FE80
ENDCHAR

STARTCHAR char76
ENCODING 76
SWIDTH 68 0
DWIDTH 8 0
BBX 7 7 0 0
BITMAP
E0
C0
C0
C0
C0
C0
FE
ENDCHAR

STARTCHAR char77
ENCODING 77
SWIDTH 7 0
DWIDTH 11 0
BBX 10 7 0 0
BITMAP
F1C0
E380
D380
D780
DD80
C980
A9C0
ENDCHAR

STARTCHAR char78
ENCODING 78
SWIDTH 86 0
DWIDTH 10 0
BBX 9 7 0 0
BITMAP
F380
D300
D300
CB00
CF00
C300
A380
ENDCHAR

STARTCHAR char79
ENCODING 79
SWIDTH 86 0
DWIDTH 10 0
BBX 9 7 0 0
BITMAP
3F00
4100
C180
C180
C180
4100
3E00
ENDCHAR

STARTCHAR char80
ENCODING 80
SWIDTH 68 0
DWIDTH 8 0
BBX 8 7 0 0
BITMAP
7E
43
C3
FE
C0
C0
E0
ENDCHAR

STARTCHAR char81
ENCODING 81
SWIDTH 86 0
DWIDTH 10 0
BBX 9 8 0 -1
BITMAP
3F00
4300
C180
C180
C180
5B00
3E00
0300
ENDCHAR

STARTCHAR char82
ENCODING 82
SWIDTH 77 0
DWIDTH 9 0
BBX 9 7 0 0
BITMAP
FE00
C300
C300
FE00
C400
C600
E380
ENDCHAR

STARTCHAR char83
ENCODING 83
SWIDTH 77 0
DWIDTH 9 0
BBX 8 7 0 0
BITMAP
3E
C2
E0
7E
03
C3
7C
ENDCHAR

STARTCHAR char84
ENCODING 84
SWIDTH 68 0
DWIDTH 8 0
BBX 7 7 0 0
BITMAP
FE
10
10
18
18
18
14
ENDCHAR

STARTCHAR char85
ENCODING 85
SWIDTH 77 0
DWIDTH 9 0
BBX 9 7 0 0
BITMAP
E380
C300
C300
C300
C300
C300
7E00
ENDCHAR

STARTCHAR char86
ENCODING 86
SWIDTH 77 0
DWIDTH 9 0
BBX 9 7 0 0
BITMAP
E380
4200
4400
2400
2800
1800
1C00
ENDCHAR

STARTCHAR char87
ENCODING 87
SWIDTH 16 0
DWIDTH 12 0
BBX 12 7 0 0
BITMAP
E670
4A40
4A40
4A40
3380
3180
29C0
ENDCHAR

STARTCHAR char88
ENCODING 88
SWIDTH 68 0
DWIDTH 8 0
BBX 8 7 0 0
BITMAP
E7
28
38
10
28
4C
E7
ENDCHAR

STARTCHAR char89
ENCODING 89
SWIDTH 68 0
DWIDTH 8 0
BBX 8 7 0 0
BITMAP
E7
6C
38
10
30
30
18
ENDCHAR

STARTCHAR char90
ENCODING 90
SWIDTH 68 0
DWIDTH 8 0
BBX 8 8 0 0
BITMAP
80
FE
0C
08
10
20
40
FF
ENDCHAR

STARTCHAR char91
ENCODING 91
SWIDTH 34 0
DWIDTH 4 0
BBX 4 8 0 0
BITMAP
20
F0
C0
C0
C0
C0
C0
E0
ENDCHAR

STARTCHAR char92
ENCODING 92
SWIDTH 25 0
DWIDTH 3 0
BBX 3 8 0 0
BITMAP
80
80
40
40
40
20
20
20
ENDCHAR

STARTCHAR char93
ENCODING 93
SWIDTH 34 0
DWIDTH 4 0
BBX 3 8 0 0
BITMAP
80
E0
60
60
60
60
60
E0
ENDCHAR

STARTCHAR char94
ENCODING 94
SWIDTH 0 0
DWIDTH 0 0
BBX 4 2 -2 8
BITMAP
60
60
ENDCHAR

STARTCHAR char95
ENCODING 95
SWIDTH 51 0
DWIDTH 6 0
BBX 6 1 0 -2
BITMAP
FC
ENDCHAR

STARTCHAR char96
ENCODING 96
SWIDTH 0 0
DWIDTH 0 0
BBX 2 3 -1 6
BITMAP
40
40
40
ENDCHAR

STARTCHAR char97
ENCODING 97
SWIDTH 60 0
DWIDTH 7 0
BBX 7 6 0 0
BITMAP
38
30
48
78
84
C6
ENDCHAR

STARTCHAR char98
ENCODING 98
SWIDTH 68 0
DWIDTH 8 0
BBX 7 6 0 0
BITMAP
FC
C6
FC
C6
C6
FC
ENDCHAR

STARTCHAR char99
ENCODING 99
SWIDTH 68 0
DWIDTH 8 0
BBX 7 6 0 0
BITMAP
3C
42
C0
C0
42
3C
ENDCHAR

STARTCHAR char100
ENCODING 100
SWIDTH 68 0
DWIDTH 8 0
BBX 7 6 0 0
BITMAP
FC
C6
C6
C6
C6
F8
ENDCHAR

STARTCHAR char101
ENCODING 101
SWIDTH 60 0
DWIDTH 7 0
BBX 6 6 0 0
BITMAP
FC
C0
F8
C0
C0
FC
ENDCHAR

STARTCHAR char102
ENCODING 102
SWIDTH 60 0
DWIDTH 7 0
BBX 6 6 0 0
BITMAP
FC
C0
F8
C0
C0
E0
ENDCHAR

STARTCHAR char103
ENCODING 103
SWIDTH 68 0
DWIDTH 8 0
BBX 7 6 0 0
BITMAP
3C
44
C0
CE
46
3C
ENDCHAR

STARTCHAR char104
ENCODING 104
SWIDTH 68 0
DWIDTH 8 0
BBX 7 6 0 0
BITMAP
C6
C6
FE
C6
C6
E6
ENDCHAR

STARTCHAR char105
ENCODING 105
SWIDTH 25 0
DWIDTH 3 0
BBX 3 6 0 0
BITMAP
E0
C0
C0
C0
C0
E0
ENDCHAR

STARTCHAR char106
ENCODING 106
SWIDTH 51 0
DWIDTH 6 0
BBX 6 6 0 0
BITMAP
0C
18
18
18
58
F0
ENDCHAR

STARTCHAR char107
ENCODING 107
SWIDTH 60 0
DWIDTH 7 0
BBX 8 6 0 0
BITMAP
EE
90
F0
D8
C8
E7
ENDCHAR

STARTCHAR char108
ENCODING 108
SWIDTH 60 0
DWIDTH 7 0
BBX 6 6 0 0
BITMAP
E0
C0
C0
C0
C0
FC
ENDCHAR

STARTCHAR char109
ENCODING 109
SWIDTH 77 0
DWIDTH 9 0
BBX 9 6 0 0
BITMAP
E300
E500
E500
DB00
DB00
FE80
ENDCHAR

STARTCHAR char110
ENCODING 110
SWIDTH 68 0
DWIDTH 8 0
BBX 8 6 0 0
BITMAP
E7
E6
D6
CE
CE
C7
ENDCHAR

STARTCHAR char111
ENCODING 111
SWIDTH 77 0
DWIDTH 9 0
BBX 8 6 0 0
BITMAP
3C
42
C3
C3
42
3C
ENDCHAR

STARTCHAR char112
ENCODING 112
SWIDTH 60 0
DWIDTH 7 0
BBX 7 6 0 0
BITMAP
FE
C6
FE
C0
C0
E0
ENDCHAR

STARTCHAR char113
ENCODING 113
SWIDTH 68 0
DWIDTH 8 0
BBX 8 7 0 -1
BITMAP
3E
43
C3
C3
57
3C
02
ENDCHAR

STARTCHAR char114
ENCODING 114
SWIDTH 68 0
DWIDTH 8 0
BBX 8 6 0 0
BITMAP
FC
C6
FE
C8
C4
E7
ENDCHAR

STARTCHAR char115
ENCODING 115
SWIDTH 60 0
DWIDTH 7 0
BBX 7 6 0 0
BITMAP
7C
C4
F8
06
C6
78
ENDCHAR

STARTCHAR char116
ENCODING 116
SWIDTH 60 0
DWIDTH 7 0
BBX 7 6 -1 0
BITMAP
FE
18
18
18
18
18
ENDCHAR

STARTCHAR char117
ENCODING 117
SWIDTH 68 0
DWIDTH 8 0
BBX 8 6 0 0
BITMAP
E7
C2
C6
C6
C6
7C
ENDCHAR

STARTCHAR char118
ENCODING 118
SWIDTH 60 0
DWIDTH 7 0
BBX 7 6 0 0
BITMAP
C6
44
48
28
30
38
ENDCHAR

STARTCHAR char119
ENCODING 119
SWIDTH 86 0
DWIDTH 10 0
BBX 10 6 0 0
BITMAP
CCC0
5480
5500
5500
5500
3300
ENDCHAR

STARTCHAR char120
ENCODING 120
SWIDTH 60 0
DWIDTH 7 0
BBX 7 6 0 0
BITMAP
CE
50
30
30
48
CE
ENDCHAR

STARTCHAR char121
ENCODING 121
SWIDTH 60 0
DWIDTH 7 0
BBX 7 6 0 0
BITMAP
CE
48
50
30
30
38
ENDCHAR

STARTCHAR char122
ENCODING 122
SWIDTH 60 0
DWIDTH 7 0
BBX 6 6 0 0
BITMAP
FC
08
10
20
40
FC
ENDCHAR

STARTCHAR char123
ENCODING 123
SWIDTH 34 0
DWIDTH 4 0
BBX 3 9 0 -2
BITMAP
60
40
60
60
80
40
40
60
60
ENDCHAR

STARTCHAR char124
ENCODING 124
SWIDTH 25 0
DWIDTH 3 0
BBX 2 8 0 0
BITMAP
C0
C0
C0
C0
C0
C0
C0
C0
ENDCHAR

STARTCHAR char125
ENCODING 125
SWIDTH 34 0
DWIDTH 4 0
BBX 3 9 0 -2
BITMAP
C0
40
60
60
20
60
60
60
E0
ENDCHAR

STARTCHAR char126
ENCODING 126
SWIDTH 0 0
DWIDTH 0 0
BBX 5 1 -3 8
BITMAP
F8
ENDCHAR

STARTCHAR char128
ENCODING 128
SWIDTH 86 0
DWIDTH 10 0
BBX 9 7 0 0
BITMAP
3F00
6080
7E00
FE00
6000
2080
1F00
ENDCHAR

STARTCHAR char130
ENCODING 130
SWIDTH 17 0
DWIDTH 2 0
BBX 2 2 0 -1
BITMAP
C0
40
ENDCHAR

STARTCHAR char131
ENCODING 131
SWIDTH 0 0
DWIDTH 0 0
BBX 4 2 -2 8
BITMAP
60
60
ENDCHAR

STARTCHAR char132
ENCODING 132
SWIDTH 34 0
DWIDTH 4 0
BBX 3 2 0 -1
BITMAP
E0
60
ENDCHAR

STARTCHAR char133
ENCODING 133
SWIDTH 7 0
DWIDTH 11 0
BBX 9 1 1 0
BITMAP
D980
ENDCHAR

STARTCHAR char134
ENCODING 134
SWIDTH 51 0
DWIDTH 6 0
BBX 5 9 0 -2
BITMAP
30
30
F8
30
20
20
20
20
20
ENDCHAR

STARTCHAR char136
ENCODING 136
SWIDTH 0 0
DWIDTH 0 0
BBX 4 3 -2 5
BITMAP
60
90
90
ENDCHAR

STARTCHAR char138
ENCODING 138
SWIDTH 86 0
DWIDTH 10 0
BBX 0 0 0 0
BITMAP
ENDCHAR

STARTCHAR char139
ENCODING 139
SWIDTH 34 0
DWIDTH 4 0
BBX 2 4 1 1
BITMAP
40
80
80
40
ENDCHAR

STARTCHAR char140
ENCODING 140
SWIDTH 24 0
DWIDTH 13 0
BBX 12 8 0 0
BITMAP
0030
3FF0
4600
C640
C780
C600
4400
3FE0
ENDCHAR

STARTCHAR char141
ENCODING 141
SWIDTH 86 0
DWIDTH 10 0
BBX 0 0 0 0
BITMAP
ENDCHAR

STARTCHAR char145
ENCODING 145
SWIDTH 17 0
DWIDTH 2 0
BBX 2 2 0 6
BITMAP
80
C0
ENDCHAR

STARTCHAR char146
ENCODING 146
SWIDTH 17 0
DWIDTH 2 0
BBX 2 2 0 5
BITMAP
C0
40
ENDCHAR

STARTCHAR char147
ENCODING 147
SWIDTH 34 0
DWIDTH 4 0
BBX 3 2 0 5
BITMAP
E0
E0
ENDCHAR

STARTCHAR char148
ENCODING 148
SWIDTH 34 0
DWIDTH 4 0
BBX 3 2 0 5
BITMAP
E0
60
ENDCHAR

STARTCHAR char149
ENCODING 149
SWIDTH 34 0
DWIDTH 4 0
BBX 3 3 0 2
BITMAP
E0
E0
E0
ENDCHAR

STARTCHAR char150
ENCODING 150
SWIDTH 77 0
DWIDTH 9 0
BBX 8 1 0 3
BITMAP
FF
ENDCHAR

STARTCHAR char151
ENCODING 151
SWIDTH 68 0
DWIDTH 8 0
BBX 7 1 0 3
BITMAP
FE
ENDCHAR

STARTCHAR char152
ENCODING 152
SWIDTH 0 0
DWIDTH 0 0
BBX 4 1 -2 7
BITMAP
F0
ENDCHAR

STARTCHAR char153
ENCODING 153
SWIDTH 86 0
DWIDTH 10 0
BBX 10 4 0 3
BITMAP
F980
6D80
6E80
7FC0
ENDCHAR

STARTCHAR char155
ENCODING 155
SWIDTH 34 0
DWIDTH 4 0
BBX 2 4 1 1
BITMAP
80
80
C0
80
ENDCHAR

STARTCHAR char156
ENCODING 156
SWIDTH 86 0
DWIDTH 10 0
BBX 9 6 0 0
BITMAP
3F80
CC00
CF00
CC00
4C00
3F80
ENDCHAR

STARTCHAR char157
ENCODING 157
SWIDTH 86 0
DWIDTH 10 0
BBX 0 0 0 0
BITMAP
ENDCHAR

STARTCHAR char159
ENCODING 159
SWIDTH 68 0
DWIDTH 8 0
BBX 8 9 0 0
BITMAP
6C
00
E7
6C
38
10
30
30
38
ENDCHAR

STARTCHAR char160
ENCODING 160
SWIDTH 43 0
DWIDTH 5 0
BBX 0 0 0 0
BITMAP
ENDCHAR

STARTCHAR char161
ENCODING 161
SWIDTH 25 0
DWIDTH 3 0
BBX 3 7 0 0
BITMAP
C0
00
40
40
40
C0
E0
ENDCHAR

STARTCHAR char162
ENCODING 162
SWIDTH 68 0
DWIDTH 8 0
BBX 8 8 0 -1
BITMAP
18
3F
5A
D0
D0
52
3C
18
ENDCHAR

STARTCHAR char163
ENCODING 163
SWIDTH 77 0
DWIDTH 9 0
BBX 9 7 0 0
BITMAP
3F80
6100
6000
FC00
6000
6000
FE00
ENDCHAR

STARTCHAR char164
ENCODING 164
SWIDTH 0 0
DWIDTH 0 0
BBX 3 2 -1 8
BITMAP
40
40
ENDCHAR

STARTCHAR char165
ENCODING 165
SWIDTH 0 0
DWIDTH 0 0
BBX 4 2 -2 8
BITMAP
90
60
ENDCHAR

STARTCHAR char166
ENCODING 166
SWIDTH 86 0
DWIDTH 10 0
BBX 0 0 0 0
BITMAP
ENDCHAR

STARTCHAR char167
ENCODING 167
SWIDTH 51 0
DWIDTH 6 0
BBX 5 9 0 -2
BITMAP
70
D0
E0
D8
C8
68
18
98
70
ENDCHAR

STARTCHAR char168
ENCODING 168
SWIDTH 0 0
DWIDTH 0 0
BBX 4 1 -2 7
BITMAP
F0
ENDCHAR

STARTCHAR char169
ENCODING 169
SWIDTH 77 0
DWIDTH 9 0
BBX 8 7 0 0
BITMAP
38
5E
E7
E3
E3
7A
3C
ENDCHAR

STARTCHAR char170
ENCODING 170
SWIDTH 0 0
DWIDTH 0 0
BBX 4 1 -2 8
BITMAP
F0
ENDCHAR

STARTCHAR char171
ENCODING 171
SWIDTH 43 0
DWIDTH 5 0
BBX 3 4 1 1
BITMAP
A0
C0
C0
A0
ENDCHAR

STARTCHAR char172
ENCODING 172
SWIDTH 68 0
DWIDTH 8 0
BBX 8 3 0 0
BITMAP
FF
03
03
ENDCHAR

STARTCHAR char174
ENCODING 174
SWIDTH 77 0
DWIDTH 9 0
BBX 8 7 0 0
BITMAP
38
7E
EE
FB
FB
7E
3C
ENDCHAR

STARTCHAR char176
ENCODING 176
SWIDTH 43 0
DWIDTH 5 0
BBX 5 3 -1 4
BITMAP
60
D8
70
ENDCHAR

STARTCHAR char177
ENCODING 177
SWIDTH 51 0
DWIDTH 6 0
BBX 5 6 0 0
BITMAP
30
30
F8
30
30
F8
ENDCHAR

STARTCHAR char179
ENCODING 179
SWIDTH 86 0
DWIDTH 10 0
BBX 0 0 0 0
BITMAP
ENDCHAR

STARTCHAR char180
ENCODING 180
SWIDTH 0 0
DWIDTH 0 0
BBX 2 3 0 6
BITMAP
C0
80
80
ENDCHAR

STARTCHAR char182
ENCODING 182
SWIDTH 60 0
DWIDTH 7 0
BBX 5 9 1 -2
BITMAP
78
D8
D8
58
58
58
58
58
58
ENDCHAR

STARTCHAR char183
ENCODING 183
SWIDTH 17 0
DWIDTH 2 0
BBX 2 1 0 3
BITMAP
C0
ENDCHAR

STARTCHAR char184
ENCODING 184
SWIDTH 0 0
DWIDTH 0 0
BBX 3 2 -1 -2
BITMAP
E0
C0
ENDCHAR

STARTCHAR char185
ENCODING 185
SWIDTH 86 0
DWIDTH 10 0
BBX 0 0 0 0
BITMAP
ENDCHAR

STARTCHAR char186
ENCODING 186
SWIDTH 0 0
DWIDTH 0 0
BBX 5 1 -3 8
BITMAP
F8
ENDCHAR

STARTCHAR char187
ENCODING 187
SWIDTH 43 0
DWIDTH 5 0
BBX 4 4 0 1
BITMAP
60
50
50
60
ENDCHAR

STARTCHAR char189
ENCODING 189
SWIDTH 86 0
DWIDTH 10 0
BBX 0 0 0 0
BITMAP
ENDCHAR

STARTCHAR char191
ENCODING 191
SWIDTH 51 0
DWIDTH 6 0
BBX 5 7 0 0
BITMAP
60
00
60
40
C0
C8
70
ENDCHAR

STARTCHAR char192
ENCODING 192
SWIDTH 77 0
DWIDTH 9 0
BBX 9 10 0 0
BITMAP
1000
1000
0000
1800
3800
2400
2400
7E00
4200
C380
ENDCHAR

STARTCHAR char193
ENCODING 193
SWIDTH 77 0
DWIDTH 9 0
BBX 9 10 0 0
BITMAP
0800
1000
0000
1800
3800
2400
2400
7E00
4200
C380
ENDCHAR

STARTCHAR char194
ENCODING 194
SWIDTH 77 0
DWIDTH 9 0
BBX 9 10 0 0
BITMAP
1000
1800
0000
1800
3800
2400
2400
7E00
4200
C380
ENDCHAR

STARTCHAR char195
ENCODING 195
SWIDTH 77 0
DWIDTH 9 0
BBX 9 9 0 0
BITMAP
3C00
0000
1800
3800
2400
2400
7E00
4200
C380
ENDCHAR

STARTCHAR char196
ENCODING 196
SWIDTH 77 0
DWIDTH 9 0
BBX 9 8 0 0
BITMAP
7600
1800
3800
2400
2400
7E00
6200
E380
ENDCHAR

STARTCHAR char197
ENCODING 197
SWIDTH 77 0
DWIDTH 9 0
BBX 8 10 0 0
BITMAP
3C
3C
3E
3C
3C
24
24
7E
C2
C3
ENDCHAR

STARTCHAR char198
ENCODING 198
SWIDTH 16 0
DWIDTH 12 0
BBX 11 7 0 0
BITMAP
1FE0
1C00
2C40
2F80
7C00
4400
87E0
ENDCHAR

STARTCHAR char199
ENCODING 199
SWIDTH 86 0
DWIDTH 10 0
BBX 8 9 0 -2
BITMAP
3E
41
C0
C0
C0
71
0E
0C
18
ENDCHAR

STARTCHAR char200
ENCODING 200
SWIDTH 68 0
DWIDTH 8 0
BBX 7 10 0 0
BITMAP
30
10
02
FE
C0
C4
FC
C0
C0
FE
ENDCHAR

STARTCHAR char201
ENCODING 201
SWIDTH 68 0
DWIDTH 8 0
BBX 7 10 0 0
BITMAP
08
10
02
FE
C0
C4
FC
C0
C0
FE
ENDCHAR

STARTCHAR char202
ENCODING 202
SWIDTH 68 0
DWIDTH 8 0
BBX 7 10 0 0
BITMAP
10
18
02
FE
C0
C4
FC
C0
C0
FE
ENDCHAR

STARTCHAR char203
ENCODING 203
SWIDTH 68 0
DWIDTH 8 0
BBX 7 9 0 0
BITMAP
6C
02
FE
C0
C2
FC
C0
C0
FE
ENDCHAR

STARTCHAR char204
ENCODING 204
SWIDTH 25 0
DWIDTH 3 0
BBX 3 10 0 0
BITMAP
80
C0
00
C0
C0
C0
C0
C0
C0
E0
ENDCHAR

STARTCHAR char205
ENCODING 205
SWIDTH 25 0
DWIDTH 3 0
BBX 3 10 0 0
BITMAP
C0
C0
00
C0
C0
C0
C0
C0
C0
E0
ENDCHAR

STARTCHAR char206
ENCODING 206
SWIDTH 25 0
DWIDTH 3 0
BBX 4 10 -1 0
BITMAP
60
60
00
60
60
60
60
60
60
70
ENDCHAR

STARTCHAR char207
ENCODING 207
SWIDTH 25 0
DWIDTH 3 0
BBX 4 9 -1 0
BITMAP
F0
00
60
60
60
60
60
60
70
ENDCHAR

STARTCHAR char209
ENCODING 209
SWIDTH 86 0
DWIDTH 10 0
BBX 9 9 0 0
BITMAP
7E00
0000
E300
D300
D300
CB00
CF00
C300
E380
ENDCHAR

STARTCHAR char210
ENCODING 210
SWIDTH 86 0
DWIDTH 10 0
BBX 9 10 0 0
BITMAP
1000
0800
0000
3F00
4100
C180
C180
C180
4100
3E00
ENDCHAR

STARTCHAR char211
ENCODING 211
SWIDTH 86 0
DWIDTH 10 0
BBX 9 10 0 0
BITMAP
0C00
0800
0000
3E00
4100
C180
C180
C180
4100
3E00
ENDCHAR

STARTCHAR char212
ENCODING 212
SWIDTH 86 0
DWIDTH 10 0
BBX 9 10 0 0
BITMAP
0C00
1400
0000
3E00
4100
C180
C180
C180
4100
3E00
ENDCHAR

STARTCHAR char213
ENCODING 213
SWIDTH 86 0
DWIDTH 10 0
BBX 9 9 0 0
BITMAP
3E00
0000
3F00
4100
C180
C180
C180
4100
3E00
ENDCHAR

STARTCHAR char214
ENCODING 214
SWIDTH 86 0
DWIDTH 10 0
BBX 9 8 0 0
BITMAP
8080
BF80
C100
C180
C180
C180
4100
3E00
ENDCHAR

STARTCHAR char216
ENCODING 216
SWIDTH 86 0
DWIDTH 10 0
BBX 9 8 0 0
BITMAP
0080
3F00
4300
C580
C980
F180
4100
BE00
ENDCHAR

STARTCHAR char217
ENCODING 217
SWIDTH 77 0
DWIDTH 9 0
BBX 8 10 0 0
BITMAP
10
10
00
C3
C3
C3
C3
C3
C3
7E
ENDCHAR

STARTCHAR char218
ENCODING 218
SWIDTH 77 0
DWIDTH 9 0
BBX 8 10 0 0
BITMAP
08
08
00
C3
C3
C3
C3
C3
C3
7E
ENDCHAR

STARTCHAR char219
ENCODING 219
SWIDTH 77 0
DWIDTH 9 0
BBX 8 10 0 0
BITMAP
18
18
00
C3
C3
C3
C3
C3
C3
7E
ENDCHAR

STARTCHAR char220
ENCODING 220
SWIDTH 77 0
DWIDTH 9 0
BBX 8 8 0 0
BITMAP
FF
C3
C3
C3
C3
C3
C3
7E
ENDCHAR

STARTCHAR char222
ENCODING 222
SWIDTH 86 0
DWIDTH 10 0
BBX 0 0 0 0
BITMAP
ENDCHAR

STARTCHAR char223
ENCODING 223
SWIDTH 33 0
DWIDTH 14 0
BBX 14 6 0 0
BITMAP
7CF8
C588
F9F0
060C
C78C
78F0
ENDCHAR

STARTCHAR char224
ENCODING 224
SWIDTH 60 0
DWIDTH 7 0
BBX 7 9 0 0
BITMAP
10
10
10
30
30
48
78
84
C6
ENDCHAR

STARTCHAR char225
ENCODING 225
SWIDTH 60 0
DWIDTH 7 0
BBX 7 9 0 0
BITMAP
18
10
10
30
30
48
78
84
C6
ENDCHAR

STARTCHAR char226
ENCODING 226
SWIDTH 60 0
DWIDTH 7 0
BBX 7 8 0 0
BITMAP
30
28
30
30
48
78
84
C6
ENDCHAR

STARTCHAR char227
ENCODING 227
SWIDTH 60 0
DWIDTH 7 0
BBX 7 8 0 0
BITMAP
78
00
30
30
48
78
84
C6
ENDCHAR

STARTCHAR char228
ENCODING 228
SWIDTH 60 0
DWIDTH 7 0
BBX 7 8 0 0
BITMAP
78
00
30
38
58
7C
44
C6
ENDCHAR

STARTCHAR char229
ENCODING 229
SWIDTH 60 0
DWIDTH 7 0
BBX 7 8 0 0
BITMAP
78
38
7C
78
48
78
84
C6
ENDCHAR

STARTCHAR char230
ENCODING 230
SWIDTH 86 0
DWIDTH 10 0
BBX 8 6 0 0
BITMAP
3F
30
5F
78
88
9F
ENDCHAR

STARTCHAR char231
ENCODING 231
SWIDTH 68 0
DWIDTH 8 0
BBX 7 8 0 -2
BITMAP
3C
42
C0
C0
E6
18
18
38
ENDCHAR

STARTCHAR char232
ENCODING 232
SWIDTH 60 0
DWIDTH 7 0
BBX 6 9 0 0
BITMAP
10
10
10
FC
C0
F8
C0
C0
FC
ENDCHAR

STARTCHAR char233
ENCODING 233
SWIDTH 60 0
DWIDTH 7 0
BBX 6 9 0 0
BITMAP
18
10
18
FC
C0
F8
C0
C0
FC
ENDCHAR

STARTCHAR char234
ENCODING 234
SWIDTH 60 0
DWIDTH 7 0
BBX 6 8 0 0
BITMAP
30
48
FC
C0
F8
C0
C0
FC
ENDCHAR

STARTCHAR char235
ENCODING 235
SWIDTH 60 0
DWIDTH 7 0
BBX 5 8 1 0
BITMAP
F0
00
F8
80
F0
80
80
F8
ENDCHAR

STARTCHAR char236
ENCODING 236
SWIDTH 25 0
DWIDTH 3 0
BBX 3 9 0 0
BITMAP
40
C0
20
C0
C0
C0
C0
C0
E0
ENDCHAR

STARTCHAR char237
ENCODING 237
SWIDTH 25 0
DWIDTH 3 0
BBX 3 9 0 0
BITMAP
20
40
A0
C0
C0
C0
C0
C0
E0
ENDCHAR

STARTCHAR char238
ENCODING 238
SWIDTH 25 0
DWIDTH 3 0
BBX 4 8 0 0
BITMAP
E0
B0
C0
C0
C0
C0
C0
E0
ENDCHAR

STARTCHAR char239
ENCODING 239
SWIDTH 25 0
DWIDTH 3 0
BBX 4 8 -1 0
BITMAP
F0
00
60
60
60
60
60
70
ENDCHAR

STARTCHAR char241
ENCODING 241
SWIDTH 68 0
DWIDTH 8 0
BBX 8 8 0 0
BITMAP
38
00
46
E6
D6
CE
CE
C7
ENDCHAR

STARTCHAR char242
ENCODING 242
SWIDTH 77 0
DWIDTH 9 0
BBX 8 9 0 0
BITMAP
08
10
08
3C
42
C3
C3
42
3C
ENDCHAR

STARTCHAR char243
ENCODING 243
SWIDTH 77 0
DWIDTH 9 0
BBX 8 9 0 0
BITMAP
0C
10
18
3C
42
C3
C3
42
3C
ENDCHAR

STARTCHAR char244
ENCODING 244
SWIDTH 77 0
DWIDTH 9 0
BBX 8 8 0 0
BITMAP
18
28
3C
42
C3
C3
42
3C
ENDCHAR

STARTCHAR char245
ENCODING 245
SWIDTH 77 0
DWIDTH 9 0
BBX 8 8 0 0
BITMAP
3C
00
3C
42
C3
C3
42
3C
ENDCHAR

STARTCHAR char246
ENCODING 246
SWIDTH 77 0
DWIDTH 9 0
BBX 8 8 0 0
BITMAP
34
00
3C
42
C3
C3
42
3C
ENDCHAR

STARTCHAR char247
ENCODING 247
SWIDTH 51 0
DWIDTH 6 0
BBX 5 3 0 1
BITMAP
30
F8
30
ENDCHAR

STARTCHAR char248
ENCODING 248
SWIDTH 77 0
DWIDTH 9 0
BBX 8 6 0 0
BITMAP
3E
C7
CB
F3
C2
BC
ENDCHAR

STARTCHAR char249
ENCODING 249
SWIDTH 68 0
DWIDTH 8 0
BBX 7 9 0 0
BITMAP
10
10
08
C2
C6
C6
C6
C6
7C
ENDCHAR

STARTCHAR char250
ENCODING 250
SWIDTH 68 0
DWIDTH 8 0
BBX 7 8 0 0
BITMAP
10
10
C2
C6
C6
C6
C6
7C
ENDCHAR

STARTCHAR char251
ENCODING 251
SWIDTH 68 0
DWIDTH 8 0
BBX 7 8 0 0
BITMAP
10
28
C2
C6
C6
C6
C6
7C
ENDCHAR

STARTCHAR char252
ENCODING 252
SWIDTH 68 0
DWIDTH 8 0
BBX 7 8 0 0
BITMAP
3C
00
C2
C6
C6
C6
C6
7C
ENDCHAR

STARTCHAR char255
ENCODING 255
SWIDTH 60 0
DWIDTH 7 0
BBX 6 8 0 0
BITMAP
78
00
C4
48
30
10
10
38
ENDCHAR
ENDFONT
